<?xml version="1.0" encoding="UTF-8"?>
<svg version="1.1" xmlns="http://www.w3.org/2000/svg" width="160" height="160">
<path d="M0 0 C4.01648555 2.71733881 7.5814976 5.65163646 11.03125 9.05078125 C11.8975 9.83453125 12.76375 10.61828125 13.65625 11.42578125 C27.46991159 26.69351248 36.41866687 48.95447057 35.44921875 69.55859375 C34.51189509 81.64140468 31.19547933 92.59027087 25.03125 103.05078125 C24.60328125 103.81390625 24.1753125 104.57703125 23.734375 105.36328125 C14.38668972 120.75946878 -2.18825997 132.93522489 -18.96875 139.05078125 C-19.82855469 139.36789063 -20.68835938 139.685 -21.57421875 140.01171875 C-38.60348094 145.24779655 -58.1176323 142.83499526 -74.09375 135.42578125 C-92.99022696 125.242823 -108.11525056 110.81138173 -114.96875 90.05078125 C-115.22624023 89.28048584 -115.48373047 88.51019043 -115.74902344 87.71655273 C-121.78712378 68.03169946 -119.17263214 46.80454329 -109.85620117 28.77099609 C-102.00802085 14.31444244 -89.50106984 1.25253485 -73.96875 -4.94921875 C-72.90140625 -5.37976563 -71.8340625 -5.8103125 -70.734375 -6.25390625 C-47.29734572 -15.4724711 -21.42719335 -13.04798127 0 0 Z " fill="#CDCDCD" transform="translate(121.96875,14.94921875)"/>
<path d="M0 0 C0 4.45250267 -2.70867074 6.40632821 -5.56640625 9.6484375 C-7.24418049 11.897633 -7.24418049 11.897633 -6.8515625 14.49609375 C-5.99553866 17.01311797 -4.99673526 19.30753206 -3.8125 21.6875 C-2.04515579 25.29110992 -0.7863253 28.67304771 0.06640625 32.578125 C1.66549444 40.89585327 1.66549444 40.89585327 6.76953125 47.16455078 C11.03293682 48.85096001 15.43693186 49.40936155 19.98095703 49.81152344 C22.59597661 50.05563409 25.12225317 50.57056309 27.6875 51.125 C28.39261719 51.25132813 29.09773438 51.37765625 29.82421875 51.5078125 C32.62227091 52.14076505 35.29098472 53.06211488 38 54 C38.34256836 53.39937744 38.68513672 52.79875488 39.03808594 52.17993164 C40.59561623 49.46634789 42.17245995 46.76449593 43.75 44.0625 C44.28882813 43.11697266 44.82765625 42.17144531 45.3828125 41.19726562 C45.91132813 40.29814453 46.43984375 39.39902344 46.984375 38.47265625 C47.46616211 37.64000244 47.94794922 36.80734863 48.44433594 35.94946289 C50 34 50 34 52.00097656 33.09545898 C54 33 54 33 57 35 C57.72159424 36.64363134 58.39351421 38.31050386 59 40 C59.33 40.33 59.66 40.66 60 41 C61.41744281 56.24331938 57.73485914 70.87417843 50 84 C49.57203125 84.763125 49.1440625 85.52625 48.703125 86.3125 C39.35543972 101.70868753 22.78049003 113.88444364 6 120 C5.14019531 120.31710938 4.28039062 120.63421875 3.39453125 120.9609375 C-13.63473094 126.1970153 -33.1488823 123.78421401 -49.125 116.375 C-68.2367645 106.07602732 -82.77270892 91.77491906 -90 71 C-90.31839844 70.18917969 -90.63679688 69.37835938 -90.96484375 68.54296875 C-94.19341969 59.0952926 -93.26741763 48.84782547 -93 39 C-89.45482427 40.77258787 -88.7139332 45.59052505 -87.38671875 49.18945312 C-85.72207428 53.55806672 -83.63168401 57.10753014 -81 61 C-80.16149552 63.71715711 -79.81842177 66.35381958 -79.5703125 69.1796875 C-78.65012868 77.85925921 -77.07886288 89.68411157 -70.8125 96.1875 C-69.01490096 97.66291033 -69.01490096 97.66291033 -67 99 C-66.21109375 99.598125 -65.4221875 100.19625 -64.609375 100.8125 C-62.12596539 102.64077702 -59.59530387 104.33539752 -57 106 C-56.31808594 106.46148437 -55.63617188 106.92296875 -54.93359375 107.3984375 C-51.16196158 109.66903626 -48.6661234 110.26475855 -44.3125 109.4375 C-42.53704026 108.97577053 -40.76652214 108.49482413 -39 108 C-36.73103125 107.47110285 -34.46011451 106.95050553 -32.1875 106.4375 C-31.12917969 106.18871094 -30.07085937 105.93992187 -28.98046875 105.68359375 C-27.99691406 105.45800781 -27.01335937 105.23242188 -26 105 C-25.10796875 104.78988281 -24.2159375 104.57976562 -23.296875 104.36328125 C-20.63994858 103.94305309 -18.81247292 104.50987709 -16.28125 105.3203125 C-1.63651684 109.76127007 -1.63651684 109.76127007 12.875 107 C18.42829342 103.9841345 23.29282676 100.19849484 28 96 C29.06992188 95.25363281 30.13984375 94.50726563 31.2421875 93.73828125 C36.15971126 88.7603861 34.88966756 80.6667338 34.875 74.125 C34.893141 72.65881838 34.91394812 71.19266718 34.9375 69.7265625 C34.98916301 66.15087311 35.00444395 62.57611045 35 59 C33.72769531 58.73574219 32.45539063 58.47148438 31.14453125 58.19921875 C24.98444199 56.83258841 19.01891393 54.89368416 13.02148438 52.94726562 C12.17263672 52.68236328 11.32378906 52.41746094 10.44921875 52.14453125 C9.68955811 51.90065674 8.92989746 51.65678223 8.1472168 51.40551758 C5.69999335 50.94334155 4.31898082 51.12149692 2 52 C0.33238307 53.58150935 -1.26283623 55.24024921 -2.8125 56.9375 C-7.10539286 61.42079143 -11.63980906 65.22557691 -16.75 68.75 C-17.36335205 69.19206787 -17.9767041 69.63413574 -18.60864258 70.08959961 C-21.74780486 72.17969756 -23.74018382 73.00143545 -27.53515625 72.98046875 C-33.98641827 71.15491433 -39.41760301 67.60390134 -45 64 C-45.59731934 63.62697754 -46.19463867 63.25395508 -46.81005859 62.86962891 C-51.71466263 59.72432928 -56.21999067 56.67858522 -57.91796875 50.84765625 C-58.41326547 39.16133095 -54.479313 24.16215843 -47 15 C-44.5 13.5625 -44.5 13.5625 -42 13 C-41.25983643 12.8254126 -40.51967285 12.6508252 -39.75708008 12.47094727 C-36.58587982 11.92926257 -33.60392174 11.88765333 -30.38671875 11.90234375 C-29.13955078 11.90556641 -27.89238281 11.90878906 -26.60742188 11.91210938 C-25.31384766 11.92048828 -24.02027344 11.92886719 -22.6875 11.9375 C-20.71813477 11.94426758 -20.71813477 11.94426758 -18.70898438 11.95117188 C-15.4726099 11.96294051 -12.23632822 11.9793824 -9 12 C-8.70561035 11.38415039 -8.4112207 10.76830078 -8.10791016 10.13378906 C-6.82048339 7.65425845 -5.24175376 5.82417084 -3.375 3.75 C-2.42753906 2.69039062 -2.42753906 2.69039062 -1.4609375 1.609375 C-0.97882813 1.07828125 -0.49671875 0.5471875 0 0 Z " fill="#4B4B4B" transform="translate(97,34)"/>
<path d="M0 0 C4.8372168 1.39784936 9.64089107 2.86286341 14.42480469 4.43408203 C15.42898437 4.75892578 16.43316406 5.08376953 17.46777344 5.41845703 C19.91343986 6.21038711 22.35734749 7.0073203 24.79980469 7.80908203 C25.04970453 12.04046311 25.22963215 16.26779463 25.34912109 20.50439453 C25.39898162 21.94037756 25.46690902 23.37586413 25.55419922 24.81005859 C26.25275677 36.59513547 26.25275677 36.59513547 22.79077148 41.87036133 C20.2645069 44.46058198 17.70496031 46.6564859 14.79980469 48.80908203 C14.11112305 49.33373047 13.42244141 49.85837891 12.71289062 50.39892578 C10.9693064 51.64552857 9.20139589 52.77228345 7.36230469 53.87158203 C6.46608398 54.43522461 6.46608398 54.43522461 5.55175781 55.01025391 C-3.15466277 60.40920745 -10.89255988 58.93352802 -20.45019531 56.93408203 C-21.33449219 56.76005859 -22.21878906 56.58603516 -23.12988281 56.40673828 C-31.20530684 54.75993731 -31.20530684 54.75993731 -34.20019531 52.80908203 C-35.01274583 49.9560595 -35.54692693 47.41069383 -35.95019531 44.49658203 C-36.07305908 43.69365723 -36.19592285 42.89073242 -36.32250977 42.06347656 C-37.29134873 35.2782281 -37.52708418 28.66164116 -37.20019531 21.80908203 C-36.52214844 21.46876953 -35.84410156 21.12845703 -35.14550781 20.77783203 C-25.00272597 15.4957185 -16.95248136 9.2494396 -9.79394531 0.30126953 C-6.15898723 -1.78992623 -3.96636826 -0.98902981 0 0 Z " fill="#C7C7C7" transform="translate(107.2001953125,85.19091796875)"/>
<path d="M0 0 C3.92881222 0.93913616 7.54029092 2.38786082 11.22900391 4.01513672 C11.96570313 4.32773437 12.70240234 4.64033203 13.46142578 4.96240234 C16.84260088 6.40711402 20.12412561 7.93144757 23.41650391 9.57763672 C22.75650391 6.60763672 22.09650391 3.63763672 21.41650391 0.57763672 C26.66384184 2.99516027 28.68172547 6.61144734 31.41650391 11.45263672 C31.85293213 12.21205566 32.28936035 12.97147461 32.73901367 13.75390625 C36.32549917 20.13330617 39.1813461 26.60068665 41.41650391 33.57763672 C41.74521484 34.60244141 42.07392578 35.62724609 42.41259766 36.68310547 C44.7619507 44.58737327 44.7619507 44.58737327 43.41650391 48.57763672 C41.27795541 46.43908822 40.98995328 45.44488358 40.41650391 42.57763672 C38.76650391 42.24763672 37.11650391 41.91763672 35.41650391 41.57763672 C28.98150391 51.97263672 28.98150391 51.97263672 22.41650391 62.57763672 C19.44650391 61.58763672 16.47650391 60.59763672 13.41650391 59.57763672 C11.48975695 59.1869149 9.55168585 58.84512952 7.60400391 58.57763672 C3.33723306 57.89932956 -0.91533204 57.20647031 -5.14599609 56.32763672 C-6.60199219 56.04146484 -6.60199219 56.04146484 -8.08740234 55.74951172 C-11.61596963 54.09290736 -12.19084425 52.15324896 -13.58349609 48.57763672 C-14.22987436 46.56990669 -14.83320109 44.54788031 -15.39599609 42.51513672 C-17.16847984 36.4706902 -19.62338766 31.04273779 -22.50927734 25.45263672 C-23.77501439 22.06506411 -23.92763736 20.92271556 -22.58349609 17.57763672 C-20.8145376 15.06702599 -18.82162144 12.79818242 -16.77099609 10.51513672 C-16.23667969 9.90347656 -15.70236328 9.29181641 -15.15185547 8.66162109 C-14.11056224 7.47687787 -13.05602147 6.30362044 -11.98730469 5.14355469 C-10.44635946 3.47695305 -10.44635946 3.47695305 -8.75927734 1.08154297 C-5.69601919 -1.03578987 -3.59059356 -0.58311298 0 0 Z " fill="#E5E5E5" transform="translate(112.58349609375,26.42236328125)"/>
<path d="M0 0 C2.375 0.0625 2.375 0.0625 5 1 C6.75 4 6.75 4 8 7 C8.33 7.33 8.66 7.66 9 8 C10.41744281 23.24331938 6.73485914 37.87417843 -1 51 C-1.42796875 51.763125 -1.8559375 52.52625 -2.296875 53.3125 C-11.64456028 68.70868753 -28.21950997 80.88444364 -45 87 C-45.85980469 87.31710938 -46.71960938 87.63421875 -47.60546875 87.9609375 C-64.63473094 93.1970153 -84.1488823 90.78421401 -100.125 83.375 C-119.2367645 73.07602732 -133.77270892 58.77491906 -141 38 C-141.31839844 37.18917969 -141.63679687 36.37835938 -141.96484375 35.54296875 C-145.19341969 26.0952926 -144.26741763 15.84782547 -144 6 C-140.45482427 7.77258787 -139.7139332 12.59052505 -138.38671875 16.18945312 C-136.72207428 20.55806672 -134.63168401 24.10753014 -132 28 C-131.16149552 30.71715711 -130.81842177 33.35381958 -130.5703125 36.1796875 C-129.65012868 44.85925921 -128.07886288 56.68411157 -121.8125 63.1875 C-120.01490096 64.66291033 -120.01490096 64.66291033 -118 66 C-117.21109375 66.598125 -116.4221875 67.19625 -115.609375 67.8125 C-113.12596539 69.64077702 -110.59530387 71.33539752 -108 73 C-107.31808594 73.46148437 -106.63617188 73.92296875 -105.93359375 74.3984375 C-102.16196158 76.66903626 -99.6661234 77.26475855 -95.3125 76.4375 C-93.53704026 75.97577053 -91.76652214 75.49482413 -90 75 C-87.73103125 74.47110285 -85.46011451 73.95050553 -83.1875 73.4375 C-82.12917969 73.18871094 -81.07085937 72.93992187 -79.98046875 72.68359375 C-78.99691406 72.45800781 -78.01335937 72.23242188 -77 72 C-76.10796875 71.78988281 -75.2159375 71.57976562 -74.296875 71.36328125 C-71.63994858 70.94305309 -69.81247292 71.50987709 -67.28125 72.3203125 C-52.63651684 76.76127007 -52.63651684 76.76127007 -38.125 74 C-32.57170658 70.9841345 -27.70717324 67.19849484 -23 63 C-21.93007812 62.25363281 -20.86015625 61.50726563 -19.7578125 60.73828125 C-14.84028874 55.7603861 -16.11033244 47.6667338 -16.125 41.125 C-16.106859 39.65881838 -16.08605188 38.19266718 -16.0625 36.7265625 C-16.01083699 33.15087311 -15.99555605 29.57611045 -16 26 C-17.24652344 25.74476562 -18.49304688 25.48953125 -19.77734375 25.2265625 C-25.48711825 23.95772372 -31.00481783 22.18464899 -36.5625 20.375 C-37.57119141 20.05015625 -38.57988281 19.7253125 -39.61914062 19.390625 C-42.08061692 18.59735302 -44.5408403 17.80041857 -47 17 C-46.67 15.68 -46.34 14.36 -46 13 C-44.33324219 13.39832031 -44.33324219 13.39832031 -42.6328125 13.8046875 C-31.94764879 16.35742823 -31.94764879 16.35742823 -21.17578125 18.5078125 C-18.37772909 19.14076505 -15.70901528 20.06211488 -13 21 C-12.64172119 20.39937744 -12.28344238 19.79875488 -11.91430664 19.17993164 C-10.2985602 16.47320887 -8.68056122 13.76783959 -7.0625 11.0625 C-6.49853516 10.11697266 -5.93457031 9.17144531 -5.35351562 8.19726562 C-4.54624023 6.84858398 -4.54624023 6.84858398 -3.72265625 5.47265625 C-3.22515869 4.64000244 -2.72766113 3.80734863 -2.21508789 2.94946289 C-1 1 -1 1 0 0 Z " fill="#989898" transform="translate(148,67)"/>
<path d="M0 0 C1.29550781 0.00966797 2.59101562 0.01933594 3.92578125 0.02929688 C14.15760295 0.15148374 14.15760295 0.15148374 18 1.3125 C18 1.9725 18 2.6325 18 3.3125 C16.02 3.6425 14.04 3.9725 12 4.3125 C13.79780193 8.60463446 16.65356009 10.69146282 20.22265625 13.53125 C22.20980696 15.52276807 22.94491619 16.4922089 23 19.3125 C21.62890625 21.03125 21.62890625 21.03125 19.5625 22.8125 C15.78743617 26.19659797 14.04779368 29.26304558 11.875 33.8125 C9.90625 36.93359375 9.90625 36.93359375 7 39.3125 C1.57484111 40.46755634 -3.97134682 39.87086227 -9.46484375 39.53515625 C-15.52165157 39.17156132 -20.54520016 40.1223709 -26.41796875 41.65625 C-29 42.3125 -29 42.3125 -32 42.3125 C-33.85787562 40.11925706 -35.49419373 37.9772148 -37.125 35.625 C-37.80755859 34.68624023 -37.80755859 34.68624023 -38.50390625 33.72851562 C-40.92720925 30.29490381 -42.70970019 27.62552568 -43 23.3125 C-41.76831055 21.36791992 -41.76831055 21.36791992 -39.88671875 19.54296875 C-39.21576172 18.88232422 -38.54480469 18.22167969 -37.85351562 17.54101562 C-37.13873047 16.86748047 -36.42394531 16.19394531 -35.6875 15.5 C-34.98431641 14.80712891 -34.28113281 14.11425781 -33.55664062 13.40039062 C-28.3083436 8.3125 -28.3083436 8.3125 -26 8.3125 C-26.33 6.9925 -26.66 5.6725 -27 4.3125 C-17.85086989 0.54402101 -9.83200067 -0.2255046 0 0 Z " fill="#F5F5F5" transform="translate(80,3.6875)"/>
<path d="M0 0 C2.25792543 2.13991942 3.80825685 4.614961 5.4375 7.25 C5.89576172 7.93191406 6.35402344 8.61382812 6.82617188 9.31640625 C10.09244734 14.39071051 10.09244734 14.39071051 9.6809082 17.10302734 C8.88703334 19.31471887 7.84243115 21.29384952 6.75 23.375 C4.36157683 28.33401421 3.37050903 33.06592089 2.42211914 38.43408203 C0.13004023 51.01648038 0.13004023 51.01648038 -3.41015625 54.09765625 C-6.1875 55 -6.1875 55 -9.0703125 55.484375 C-13.36091973 56.23952187 -16.39342912 58.49431258 -20.00390625 60.828125 C-22 62 -22 62 -24 62 C-24.48210938 60.89140625 -24.96421875 59.7828125 -25.4609375 58.640625 C-26.09890222 57.17705887 -26.73692616 55.71351856 -27.375 54.25 C-27.69210938 53.52039063 -28.00921875 52.79078125 -28.3359375 52.0390625 C-28.6453125 51.33007812 -28.9546875 50.62109375 -29.2734375 49.890625 C-29.55622559 49.24125977 -29.83901367 48.59189453 -30.13037109 47.92285156 C-30.7376596 46.58006541 -31.39615348 45.25979284 -32.09155273 43.96044922 C-34.61614568 38.51232202 -32.58506702 32.5293107 -30.8125 27.125 C-30.58546387 26.42608643 -30.35842773 25.72717285 -30.12451172 25.00708008 C-25.51761317 11.28348907 -25.51761317 11.28348907 -19.8125 8.375 C-19.22210938 8.19066406 -18.63171875 8.00632812 -18.0234375 7.81640625 C-14.44110629 6.37102551 -11.5511906 3.79290933 -8.52734375 1.42578125 C-5.26021779 -0.41734236 -3.68839253 -0.80327105 0 0 Z " fill="#EAEAEA" transform="translate(37,31)"/>
<path d="M0 0 C3.60502045 0.59831222 3.90757505 0.87419938 6.25 4.0625 C10.18561922 12.64648837 8.95398311 25.24631183 6 34 C5.68160156 34.97710937 5.36320312 35.95421875 5.03515625 36.9609375 C2.52090556 43.81798483 -0.44850189 49.33921715 -7 53 C-8.99427074 53.36605374 -10.99431535 53.70277924 -13 54 C-14.41303509 34.55808648 -14.97740832 19.55612878 -2.21508789 3.55517578 C-0.91765231 2.00053409 -0.91765231 2.00053409 0 0 Z " fill="#474747" transform="translate(146,69)"/>
<path d="M0 0 C4.96473543 4.21349257 8.07664002 8.48218021 8.625 15.0625 C8.5425 15.7225 8.46 16.3825 8.375 17.0625 C5.36995906 16.38886785 2.65414584 15.41539698 -0.1796875 14.21484375 C-1.04207031 13.85712891 -1.90445313 13.49941406 -2.79296875 13.13085938 C-4.59240429 12.37914713 -6.38931511 11.62136147 -8.18359375 10.85742188 C-14.68016163 8.08539396 -14.68016163 8.08539396 -21.625 8.0625 C-23.80857972 9.52669461 -23.80857972 9.52669461 -25.5 11.5625 C-26.09554687 12.2121875 -26.69109375 12.861875 -27.3046875 13.53125 C-27.74039063 14.0365625 -28.17609375 14.541875 -28.625 15.0625 C-28.625 14.0725 -28.625 13.0825 -28.625 12.0625 C-27.779375 11.27875 -26.93375 10.495 -26.0625 9.6875 C-23.41666667 7.36458333 -23.41666667 7.36458333 -23.375 4.6875 C-26.11363005 -1.0636231 -31.6329187 -5.15562023 -36.625 -8.9375 C-36.295 -9.9275 -35.965 -10.9175 -35.625 -11.9375 C-22.95691683 -15.2712061 -9.82410932 -7.34634724 0 0 Z " fill="#505050" transform="translate(127.625,18.9375)"/>
<path d="M0 0 C1.33224609 0.28423828 1.33224609 0.28423828 2.69140625 0.57421875 C3.70074219 0.79722656 4.71007812 1.02023438 5.75 1.25 C8.14544961 1.77259532 10.54129798 2.29336552 12.9375 2.8125 C14.06542969 3.06128906 15.19335938 3.31007812 16.35546875 3.56640625 C19.80910044 4.2619017 23.25862775 4.78418795 26.75 5.25 C26.1875 7.5625 26.1875 7.5625 24.75 10.25 C13.38319252 16.8806377 -6.8574164 16.02169398 -19.359375 13.02734375 C-22.4945144 11.73830916 -24.16611927 9.88958225 -26.25 7.25 C-21.77225163 2.77225163 -14.13905391 1.89436005 -8.09765625 0.6796875 C-2.66789006 -0.58304882 -2.66789006 -0.58304882 0 0 Z " fill="#404040" transform="translate(77.25,138.75)"/>
<path d="M0 0 C2.375 0.0625 2.375 0.0625 5 1 C6.75 4 6.75 4 8 7 C8.495 7.495 8.495 7.495 9 8 C10.41744281 23.24331938 6.73485914 37.87417843 -1 51 C-1.42796875 51.763125 -1.8559375 52.52625 -2.296875 53.3125 C-11.33821154 68.20411312 -26.89569998 79.78430525 -43 86 C-42.67 85.01 -42.34 84.02 -42 83 C-41.34 83 -40.68 83 -40 83 C-39.67 81.68 -39.34 80.36 -39 79 C-39.66 79 -40.32 79 -41 79 C-41 78.34 -41 77.68 -41 77 C-39.28665677 75.95801999 -37.5259654 74.9937434 -35.75 74.0625 C-30.17627522 70.92727981 -25.83082184 67.33040785 -21.23266602 62.91943359 C-17.95037532 59.79483591 -14.69134111 57.36818647 -10.8046875 55.078125 C-2.82892156 50.31338171 0.07780968 44.75515616 3 36 C3.2475 35.26910156 3.495 34.53820312 3.75 33.78515625 C6.00868162 25.61312068 6.92983114 13.89083072 3.125 6.125 C1.18029031 3.05554891 1.18029031 3.05554891 -1 1 C-0.67 0.67 -0.34 0.34 0 0 Z " fill="#BDBDBD" transform="translate(148,67)"/>
<path d="M0 0 C0 0.66 0 1.32 0 2 C-1.46875 3.4453125 -1.46875 3.4453125 -3.5 5.125 C-6.57587318 7.74579747 -9.55103612 10.42095222 -12.4375 13.25 C-13.42556641 14.21679688 -13.42556641 14.21679688 -14.43359375 15.203125 C-16.22069205 17.02037599 -16.22069205 17.02037599 -17 20 C-18.57557446 20.68503237 -20.15732747 21.35813785 -21.76171875 21.97265625 C-25.5905211 23.73002976 -28.97795185 26.20275918 -32.44921875 28.57421875 C-35 30 -35 30 -39 30 C-32.83223763 16.74505726 -19.4222609 5.61294547 -6 0 C-2.30609896 -1.15304948 -2.30609896 -1.15304948 0 0 Z " fill="#4D4D4D" transform="translate(54,10)"/>
<path d="M0 0 C3.39356411 3.04098602 5.19602323 6.0145626 7.125 10.125 C9.08374704 14.39867736 9.08374704 14.39867736 12 18 C12 20.33333333 12 22.66666667 12 25 C12.51355972 27.93589526 13.25060683 30.80385535 14 33.6875 C15.069437 37.867698 16 41.64482858 16 46 C15.01 45.67 14.02 45.34 13 45 C12.05078125 42.93359375 12.05078125 42.93359375 11.3125 40.4375 C11.06113281 39.61121094 10.80976563 38.78492188 10.55078125 37.93359375 C10.36902344 37.29550781 10.18726563 36.65742187 10 36 C9.01 36 8.02 36 7 36 C2.2933509 24.29310631 -0.69880544 12.68202467 0 0 Z " fill="#515151" transform="translate(5,78)"/>
<path d="M0 0 C5.24733794 2.41752355 7.26522157 6.03381062 10 10.875 C10.65464233 12.01412842 10.65464233 12.01412842 11.32250977 13.17626953 C14.90899527 19.55566946 17.7648422 26.02304993 20 33 C20.32871094 34.02480469 20.65742188 35.04960938 20.99609375 36.10546875 C23.3454468 44.00973656 23.3454468 44.00973656 22 48 C19.8614515 45.8614515 19.57344937 44.86724686 19 42 C17.02 41.67 15.04 41.34 13 41 C12.93683594 40.15179688 12.87367188 39.30359375 12.80859375 38.4296875 C11.89668554 29.69456675 9.7238957 23.50977111 5.55859375 15.86328125 C4 13 4 13 3 10 C2.34 9.67 1.68 9.34 1 9 C1.020625 8.2575 1.04125 7.515 1.0625 6.75 C1.00671312 4.29537721 0.6930096 2.33890739 0 0 Z " fill="#E0E0E0" transform="translate(134,27)"/>
<path d="M0 0 C0.99 0.495 0.99 0.495 2 1 C2.625 3.5625 2.625 3.5625 3 6 C2.67 6 2.34 6 2 6 C1.39762322 15.48743424 3.65142194 23.89872913 6 33 C6.67012554 35.66581139 7.33474046 38.33296852 8 41 C8.99 41 9.98 41 11 41 C12.32 43.97 13.64 46.94 15 50 C15.99 50 16.98 50 18 50 C19.04660805 51.63780016 20.04035689 53.30977431 21 55 C27.62685394 62.18626369 36.2973278 67.6486639 45 72 C44.505 73.98 44.505 73.98 44 76 C44.99 76.33 45.98 76.66 47 77 C46.01 77.495 46.01 77.495 45 78 C25.47241387 68.0375251 10.72358724 52.86847493 3.04296875 32.23828125 C0.55439196 24.51157654 -0.27015719 18.09530496 -0.125 10 C-0.11597656 9.03449219 -0.10695312 8.06898437 -0.09765625 7.07421875 C-0.07430635 4.71587901 -0.04156047 2.35807714 0 0 Z " fill="#C2C2C2" transform="translate(4,73)"/>
<path d="M0 0 C2.64951726 0.50769193 4.75863027 1.24190709 7.171875 2.4375 C8.203125 2.9325 9.234375 3.4275 10.296875 3.9375 C11.225 4.68 11.225 4.68 12.171875 5.4375 C12.171875 6.0975 12.171875 6.7575 12.171875 7.4375 C4.3802389 6.52847579 4.3802389 6.52847579 2.23046875 5.58984375 C-0.0997784 5.17785971 -0.0997784 5.17785971 -2.30859375 7.5 C-3.20191406 8.469375 -4.09523438 9.43875 -5.015625 10.4375 C-5.99104178 11.46321452 -6.9702464 12.4853397 -7.953125 13.50390625 C-8.4378125 14.00680176 -8.9225 14.50969727 -9.421875 15.02783203 C-14.84231504 20.46144675 -20.88100345 24.27971748 -27.828125 27.4375 C-28.158125 26.4475 -28.488125 25.4575 -28.828125 24.4375 C-28.23644531 23.99019531 -27.64476563 23.54289062 -27.03515625 23.08203125 C-26.24496094 22.47746094 -25.45476562 21.87289062 -24.640625 21.25 C-23.86332031 20.65832031 -23.08601563 20.06664063 -22.28515625 19.45703125 C-18.52373955 16.36537396 -15.23988505 12.93505337 -12.06640625 9.25390625 C-4.5061456 0.6970833 -4.5061456 0.6970833 0 0 Z " fill="#E4E4E4" transform="translate(102.828125,83.5625)"/>
<path d="M0 0 C1.29550781 0.00966797 2.59101562 0.01933594 3.92578125 0.02929688 C14.15760295 0.15148374 14.15760295 0.15148374 18 1.3125 C18 1.9725 18 2.6325 18 3.3125 C17.05125 3.43625 16.1025 3.56 15.125 3.6875 C11.91332809 4.02937177 11.91332809 4.02937177 10 6.3125 C8.65397034 6.03484366 7.32217662 5.68765046 6 5.3125 C-4.95417889 4.52355637 -15.28578083 6.27169635 -26 8.3125 C-26.33 6.9925 -26.66 5.6725 -27 4.3125 C-17.85086989 0.54402101 -9.83200067 -0.2255046 0 0 Z " fill="#E3E3E3" transform="translate(80,3.6875)"/>
<path d="M0 0 C0 3.75898295 -1.03428131 4.63381385 -3.375 7.5 C-5.37096547 9.9641549 -7.23855948 12.35783922 -9 15 C-9 14.34 -9 13.68 -9 13 C-11.64 13.33 -14.28 13.66 -17 14 C-17 14.33 -17 14.66 -17 15 C-20.89519106 15.50508972 -24.79124657 16.00317733 -28.6875 16.5 C-29.79029297 16.64308594 -30.89308594 16.78617188 -32.02929688 16.93359375 C-33.09599609 17.06894531 -34.16269531 17.20429687 -35.26171875 17.34375 C-36.24100342 17.46943359 -37.22028809 17.59511719 -38.22924805 17.72460938 C-40.84232089 17.98432795 -43.37635968 18.05025329 -46 18 C-46.33 17.01 -46.66 16.02 -47 15 C-41.3551796 12.58079126 -36.52128866 11.87433202 -30.38671875 11.90234375 C-29.13955078 11.90556641 -27.89238281 11.90878906 -26.60742188 11.91210938 C-25.31384766 11.92048828 -24.02027344 11.92886719 -22.6875 11.9375 C-20.71813477 11.94426758 -20.71813477 11.94426758 -18.70898438 11.95117188 C-15.4726099 11.96294051 -12.23632822 11.9793824 -9 12 C-8.70561035 11.38415039 -8.4112207 10.76830078 -8.10791016 10.13378906 C-6.82048339 7.65425845 -5.24175376 5.82417084 -3.375 3.75 C-2.74335937 3.04359375 -2.11171875 2.3371875 -1.4609375 1.609375 C-0.97882813 1.07828125 -0.49671875 0.5471875 0 0 Z " fill="#6C6C6C" transform="translate(97,34)"/>
<path d="M0 0 C2.375 0.0625 2.375 0.0625 5 1 C6.75 4 6.75 4 8 7 C8.33 7.33 8.66 7.66 9 8 C10.45054961 23.5993532 6.9505674 39.71847079 -2.71875 52.22265625 C-4.09692568 53.85761466 -5.54097809 55.43676224 -7 57 C-7.66 56.01 -8.32 55.02 -9 54 C-7.948125 53.2575 -6.89625 52.515 -5.8125 51.75 C-0.84087524 47.4929205 0.97066411 42.08008057 3 36 C3.2475 35.26910156 3.495 34.53820312 3.75 33.78515625 C6.00868162 25.61312068 6.92983114 13.89083072 3.125 6.125 C1.18029031 3.05554891 1.18029031 3.05554891 -1 1 C-0.67 0.67 -0.34 0.34 0 0 Z " fill="#A2A2A2" transform="translate(148,67)"/>
<path d="M0 0 C2.49331824 2.49331824 2.25683316 4.00074314 2.27856445 7.40722656 C2.26913818 8.1184668 2.25971191 8.82970703 2.25 9.5625 C2.24250732 10.29049805 2.23501465 11.01849609 2.22729492 11.76855469 C2.03260592 21.51823183 -0.30515997 30.36253188 -5 39 C-7.1640625 40.8515625 -7.1640625 40.8515625 -9 42 C-8.15109846 36.75021414 -7.09131047 31.94185972 -4.9375 27.0625 C-2.6770562 21.73789905 -2.32470065 16.72175195 -2 11 C-1.52532648 7.26194606 -1.01655143 3.63054081 0 0 Z " fill="#666666" transform="translate(152,76)"/>
<path d="M0 0 C1.65 0 3.3 0 5 0 C4.67 0.66 4.34 1.32 4 2 C8.96134019 7.45368146 14.95024019 9.58591038 22.23291016 10.33056641 C25.60211119 10.42725429 28.94320992 10.39968692 32.3125 10.3125 C33.45267578 10.30283203 34.59285156 10.29316406 35.76757812 10.28320312 C40.96626788 10.21340169 45.87748202 9.94410938 51 9 C50 11 50 11 47.05859375 12.1015625 C42.41740521 13.30408984 37.83556215 13.38243195 33.0625 13.375 C31.68892334 13.37584595 31.68892334 13.37584595 30.28759766 13.37670898 C21.34175516 13.23432864 8.69535135 12.21877878 1.3125 6.75 C-0.43117437 4.42510084 -0.22988536 2.83525274 0 0 Z " fill="#A2A2A2" transform="translate(48,144)"/>
<path d="M0 0 C2 3 2 3 1.96484375 4.82421875 C0.51261895 8.09907387 -1.90823464 10.34966136 -4.4375 12.8125 C-4.9730249 13.34004883 -5.5085498 13.86759766 -6.06030273 14.41113281 C-18.07016341 26 -18.07016341 26 -24 26 C-24 25.34 -24 24.68 -24 24 C-23.01 23.67 -22.02 23.34 -21 23 C-20.67 22.01 -20.34 21.02 -20 20 C-19.01 19.67 -18.02 19.34 -17 19 C-15.38929039 17.37310866 -15.38929039 17.37310866 -13.8125 15.375 C-10.25053851 11.17643263 -6.44733441 7.27160232 -2 4 C-1.34 4 -0.68 4 0 4 C0 2.68 0 1.36 0 0 Z " fill="#424242" transform="translate(99,78)"/>
<path d="M0 0 C3.88004597 0.78879214 7.75761513 1.58872952 11.63330078 2.39868164 C13.59418072 2.80609663 15.55684841 3.20487643 17.51953125 3.60351562 C18.76347656 3.86455078 20.00742188 4.12558594 21.2890625 4.39453125 C22.43068848 4.63018799 23.57231445 4.86584473 24.74853516 5.10864258 C28.1136917 6.03116747 30.93933749 7.3399453 34 9 C33.34 9.99 32.68 10.98 32 12 C28.32237573 11.03841934 24.66092819 10.0232408 21 9 C19.77845215 8.66210449 19.77845215 8.66210449 18.53222656 8.31738281 C15.80911809 7.55848373 13.09188117 6.78087395 10.375 6 C9.47362305 5.7510498 8.57224609 5.50209961 7.64355469 5.24560547 C6.79954102 4.99955566 5.95552734 4.75350586 5.0859375 4.5 C4.3232959 4.2834375 3.5606543 4.066875 2.77490234 3.84375 C2.18918457 3.5653125 1.6034668 3.286875 1 3 C0.67 2.01 0.34 1.02 0 0 Z " fill="#B8B8B8" transform="translate(101,80)"/>
<path d="M0 0 C0.33 0 0.66 0 1 0 C1 3.3 1 6.6 1 10 C0.23816406 10.30292969 -0.52367188 10.60585937 -1.30859375 10.91796875 C-7.81536669 13.55804516 -13.93730033 16.46569077 -20 20 C-20.66 20.33 -21.32 20.66 -22 21 C-22.66 19.68 -23.32 18.36 -24 17 C-20.44360764 14.69880494 -17.05281712 13.22527029 -13 12 C-13 11.34 -13 10.68 -13 10 C-9.04 8.68 -5.08 7.36 -1 6 C-0.67 4.02 -0.34 2.04 0 0 Z " fill="#A0A0A0" transform="translate(39,77)"/>
<path d="M0 0 C0.66 0 1.32 0 2 0 C1.95875 0.97582031 1.9175 1.95164062 1.875 2.95703125 C1.875 7.38863117 2.89081017 11.41936751 4 15.6875 C5.069437 19.867698 6 23.64482858 6 28 C3 27 3 27 1.5 24.1875 C-1.12330232 17.48350519 -3.27822682 10.23389744 -3 3 C-2.01 2.67 -1.02 2.34 0 2 C0 1.34 0 0.68 0 0 Z " fill="#3E3E3E" transform="translate(15,96)"/>
<path d="M0 0 C-2.80133839 10.27157411 -14.4149544 16.01742625 -23 21 C-24.64866253 21.710024 -26.30923303 22.39706612 -28 23 C-26.47450211 18.77408659 -23.75478487 17.25457003 -20.0625 14.875 C-14.21597062 11.02020851 -9.18605607 6.72070108 -4.14453125 1.87109375 C-2 0 -2 0 0 0 Z " fill="#AFAFAF" transform="translate(136,126)"/>
<path d="M0 0 C0.66 0.33 1.32 0.66 2 1 C1.60688252 5.97339323 -0.9683918 8.59099966 -4.3125 12 C-5.28923291 13.01942454 -6.26451463 14.04024164 -7.23828125 15.0625 C-7.70572754 15.55105469 -8.17317383 16.03960937 -8.65478516 16.54296875 C-10.55621357 18.60244693 -12.28530939 20.78434277 -14 23 C-15.32 22.67 -16.64 22.34 -18 22 C-17.34 22 -16.68 22 -16 22 C-15.73574219 21.43796875 -15.47148438 20.8759375 -15.19921875 20.296875 C-11.27341561 12.77774717 -5.71217877 6.21568389 0 0 Z " fill="#DBDBDB" transform="translate(103,21)"/>
<path d="M0 0 C0.99 0.495 0.99 0.495 2 1 C2.625 3.5625 2.625 3.5625 3 6 C2.67 6 2.34 6 2 6 C1.39762322 15.48743424 3.65142194 23.89872913 6 33 C6.67012554 35.66581139 7.33474046 38.33296852 8 41 C8.99 41 9.98 41 11 41 C11.66 43.31 12.32 45.62 13 48 C10.37903705 47.00048023 9.18268707 46.28677622 7.65625 43.890625 C6.36814994 40.94888297 5.15074378 37.99846802 4 35 C3.60167969 33.97648437 3.20335937 32.95296875 2.79296875 31.8984375 C-0.7668349 21.35739348 -0.40958375 11.00520023 0 0 Z " fill="#969696" transform="translate(4,73)"/>
<path d="M0 0 C0.99 0 1.98 0 3 0 C3 0.66 3 1.32 3 2 C3.66 2 4.32 2 5 2 C5.4125 2.721875 5.825 3.44375 6.25 4.1875 C8.41209199 7.66229071 10.78128078 9.49655171 14 12 C13.67 12.66 13.34 13.32 13 14 C12.34 14 11.68 14 11 14 C11 14.66 11 15.32 11 16 C12.32 16.33 13.64 16.66 15 17 C14.319375 17.20625 13.63875 17.4125 12.9375 17.625 C9.02990149 19.45408866 6.16142061 22.10279034 3 25 C4.19405479 22.40117486 5.004731 20.99580968 7.1875 19.0625 C9.21827093 17.16566414 9.21827093 17.16566414 9.1875 14.6875 C7.37502917 10.58559233 4.25894254 8.00278112 1 5 C-0.00453508 4.00455574 -1.00611604 3.00607886 -2 2 C-1.34 2 -0.68 2 0 2 C0 1.34 0 0.68 0 0 Z " fill="#696969" transform="translate(95,9)"/>
<path d="M0 0 C3.6320271 6.985926 6.70826287 14.03204267 6 22 C6.97839844 22.07347656 6.97839844 22.07347656 7.9765625 22.1484375 C12.93279853 22.57242229 17.33019451 23.15665573 22 25 C22 25.33 22 25.66 22 26 C20.40173132 25.79153017 18.80418959 25.57589637 17.2109375 25.33203125 C15.6160105 25.09251041 14.01607405 24.88555544 12.4140625 24.69921875 C11.09535156 24.50779297 11.09535156 24.50779297 9.75 24.3125 C8.91984375 24.20550781 8.0896875 24.09851563 7.234375 23.98828125 C3.85312481 22.49272828 3.3483873 20.36901406 2 17 C1.16962956 14.62414514 0.39905241 12.22660326 -0.3125 9.8125 C-0.67988281 8.60207031 -1.04726562 7.39164062 -1.42578125 6.14453125 C-2 3 -2 3 0 0 Z " fill="#CDCDCD" transform="translate(97,58)"/>
<path d="M0 0 C0.99 0.33 1.98 0.66 3 1 C-4.00326233 5.23881667 -8.64436886 5.1831156 -16.8125 5.1875 C-18.59624023 5.20586914 -18.59624023 5.20586914 -20.41601562 5.22460938 C-21.56392578 5.22654297 -22.71183594 5.22847656 -23.89453125 5.23046875 C-24.94487549 5.23457764 -25.99521973 5.23868652 -27.07739258 5.24291992 C-30.08848811 4.99264509 -32.27420604 4.26818373 -35 3 C-32.18426854 2.19618343 -29.72862294 1.88981634 -26.8046875 1.9375 C-26.01054443 1.94595947 -25.21640137 1.95441895 -24.39819336 1.96313477 C-23.56553955 1.97530029 -22.73288574 1.98746582 -21.875 2 C-10.62980694 2.59146949 -10.62980694 2.59146949 0 0 Z " fill="#6C6C6C" transform="translate(97,150)"/>
<path d="M0 0 C1.29550781 0.00966797 2.59101562 0.01933594 3.92578125 0.02929688 C14.15760295 0.15148374 14.15760295 0.15148374 18 1.3125 C18 1.9725 18 2.6325 18 3.3125 C17.05125 3.43625 16.1025 3.56 15.125 3.6875 C11.91332809 4.02937177 11.91332809 4.02937177 10 6.3125 C9.34 4.9925 8.68 3.6725 8 2.3125 C-2.53109421 2.1142158 -12.65385845 1.99959011 -23 4.3125 C-23 4.9725 -23 5.6325 -23 6.3125 C-23.66 6.3125 -24.32 6.3125 -25 6.3125 C-25.33 6.9725 -25.66 7.6325 -26 8.3125 C-26.33 6.9925 -26.66 5.6725 -27 4.3125 C-17.85086989 0.54402101 -9.83200067 -0.2255046 0 0 Z " fill="#C3C3C3" transform="translate(80,3.6875)"/>
<path d="M0 0 C2.0625 1.625 2.0625 1.625 4 4 C3.72604615 6.00899487 3.38290462 8.00889599 3 10 C3.42464207 11.89455694 3.85913411 13.78884958 4.390625 15.65625 C5.61440028 20.36307801 6.23852532 25.20078983 7 30 C7.33182807 32.0002503 7.66474236 34.00032167 8 36 C4.01179718 32.01179718 3.41346912 25.34105955 2 20 C1.76796875 19.16210938 1.5359375 18.32421875 1.296875 17.4609375 C-0.1869942 11.63145136 -0.20158996 5.99170167 0 0 Z " fill="#6F6F6F" transform="translate(5,78)"/>
<path d="M0 0 C2.24609375 -0.359375 2.24609375 -0.359375 5 0 C7.09765625 2.484375 7.09765625 2.484375 9.0625 5.75 C11.43135473 9.6339836 13.63901107 12.91597453 17 16 C18.19625 15.505 19.3925 15.01 20.625 14.5 C24.21101476 13.14088765 27.13404799 12.7100536 31 13 C31 13.99 31 14.98 31 16 C28.89679937 16.50404808 26.79240209 17.00310508 24.6875 17.5 C23.51574219 17.7784375 22.34398437 18.056875 21.13671875 18.34375 C18 19 18 19 15 19 C13.6496582 17.56298828 13.6496582 17.56298828 12.30078125 15.5703125 C11.57084961 14.50103516 11.57084961 14.50103516 10.82617188 13.41015625 C10.0769043 12.27900391 10.0769043 12.27900391 9.3125 11.125 C8.80138672 10.37863281 8.29027344 9.63226563 7.76367188 8.86328125 C4 3.28560998 4 3.28560998 4 1 C2.68 0.67 1.36 0.34 0 0 Z " fill="#B6B6B6" transform="translate(33,30)"/>
<path d="M0 0 C0 0.66 0 1.32 0 2 C-1.46875 3.4453125 -1.46875 3.4453125 -3.5 5.125 C-7.35660408 8.36618854 -10.76635332 11.85695327 -14.140625 15.59375 C-16 17 -16 17 -18.234375 16.71875 C-18.81703125 16.4815625 -19.3996875 16.244375 -20 16 C-19.21753906 15.25234375 -18.43507812 14.5046875 -17.62890625 13.734375 C-16.6063767 12.73998846 -15.5842629 11.74517428 -14.5625 10.75 C-14.04623047 10.25886719 -13.52996094 9.76773437 -12.99804688 9.26171875 C-10.25662384 6.57404911 -8.73308268 4.75917977 -8 1 C-2.71910112 -1.35955056 -2.71910112 -1.35955056 0 0 Z " fill="#555555" transform="translate(54,10)"/>
<path d="M0 0 C0.99 0.33 1.98 0.66 3 1 C-5.31072152 10.32422414 -16.37052807 17.51143188 -28 22 C-26.68778117 18.06334351 -25.2249411 17.76054011 -21.625 15.8125 C-13.77020058 11.38831703 -6.26296598 6.53842051 0 0 Z " fill="#D1D1D1" transform="translate(133,131)"/>
<path d="M0 0 C0.66 0 1.32 0 2 0 C2.08564209 0.72590332 2.17128418 1.45180664 2.25952148 2.19970703 C2.65071152 5.50831367 3.04408534 8.81665718 3.4375 12.125 C3.57220703 13.26710938 3.70691406 14.40921875 3.84570312 15.5859375 C3.97783203 16.69453125 4.10996094 17.803125 4.24609375 18.9453125 C4.36654053 19.96125488 4.4869873 20.97719727 4.61108398 22.02392578 C5.00396608 25.03034934 5.48390313 28.01248074 6 31 C5.01 31 4.02 31 3 31 C1.02996486 20.55177791 -0.50892859 10.66865123 0 0 Z " fill="#919191" transform="translate(70,107)"/>
<path d="M0 0 C1.299375 0.433125 1.299375 0.433125 2.625 0.875 C2.295 1.535 1.965 2.195 1.625 2.875 C0.635 2.545 -0.355 2.215 -1.375 1.875 C-1.83390625 2.40609375 -2.2928125 2.9371875 -2.765625 3.484375 C-11.96061644 14.07020548 -11.96061644 14.07020548 -17.375 15.875 C-17.375 12.875 -17.375 12.875 -15.8359375 11.26171875 C-15.14757812 10.70097656 -14.45921875 10.14023438 -13.75 9.5625 C-11.01150707 7.30131482 -8.58878701 5.04345646 -6.25 2.375 C-3.375 -0.125 -3.375 -0.125 0 0 Z " fill="#DBDBDB" transform="translate(103.375,84.125)"/>
<path d="M0 0 C5.23272633 1.63958758 10.15196636 3.38952035 15 6 C14.67 7.32 14.34 8.64 14 10 C14.99 10.33 15.98 10.66 17 11 C16.01 11.495 16.01 11.495 15 12 C12.73710294 10.847709 10.64527554 9.65504229 8.5 8.3125 C7.90574219 7.95994141 7.31148437 7.60738281 6.69921875 7.24414062 C3.44029323 5.23214033 1.26591146 3.68946563 0 0 Z " fill="#BFBFBF" transform="translate(34,139)"/>
<path d="M0 0 C2 3 2 3 1.9375 4.875 C0.54881937 8.02267609 -1.38253744 9.79895194 -4 12 C-5.66194453 12.35613097 -7.328451 12.69208308 -9 13 C-10.82337753 14.9568288 -10.82337753 14.9568288 -12 17 C-12.99 16.67 -13.98 16.34 -15 16 C-13.25904321 14.17799867 -11.50822868 12.36770425 -9.75 10.5625 C-9.25886719 10.04623047 -8.76773438 9.52996094 -8.26171875 8.99804688 C-3.69835805 4.34341896 -3.69835805 4.34341896 0 4 C0 2.68 0 1.36 0 0 Z " fill="#3B3B3B" transform="translate(99,78)"/>
<path d="M0 0 C0.66 0 1.32 0 2 0 C3.17293889 6.3778552 4.29530838 12.50321562 4 19 C2.02 19.66 0.04 20.32 -2 21 C-1.67 20.34 -1.34 19.68 -1 19 C-0.34 19 0.32 19 1 19 C0.67 18.01 0.34 17.02 0 16 C-0.07051114 13.26134713 -0.09357765 10.54972412 -0.0625 7.8125 C-0.05798828 7.06291016 -0.05347656 6.31332031 -0.04882812 5.54101562 C-0.03706354 3.69397617 -0.01912865 1.84697787 0 0 Z " fill="#B8B8B8" transform="translate(69,120)"/>
<path d="M0 0 C4.18020025 1.39340008 5.46557639 4.36186855 7.6875 7.9375 C8.10322266 8.58396484 8.51894531 9.23042969 8.94726562 9.89648438 C12 14.72371459 12 14.72371459 12 17 C13.65 17 15.3 17 17 17 C15.68 17.99 14.36 18.98 13 20 C9.36710986 16.55161741 6.46111741 13.04326119 3.6875 8.875 C2.64142578 7.32425781 2.64142578 7.32425781 1.57421875 5.7421875 C0 3 0 3 0 0 Z " fill="#DBDBDB" transform="translate(37,27)"/>
<path d="M0 0 C2.35953094 2.35953094 2.49141413 3.77895617 3 7 C3.99 7 4.98 7 6 7 C6 5.02 6 3.04 6 1 C6.66 1 7.32 1 8 1 C8.53293835 2.74635165 9.05090663 4.49727652 9.5625 6.25 C9.85253906 7.22453125 10.14257812 8.1990625 10.44140625 9.203125 C10.99249836 11.96243932 10.93789609 13.3912824 10 16 C7.8614515 13.8614515 7.57344937 12.86724686 7 10 C4.03 9.505 4.03 9.505 1 9 C0.67 6.03 0.34 3.06 0 0 Z " fill="#D6D6D6" transform="translate(146,59)"/>
<path d="M0 0 C2.475 0.99 2.475 0.99 5 2 C4.67218843 5.05957468 3.94321599 6.05836134 1.75 8.3125 C-1 10 -1 10 -6 9 C-4.02 6.03 -2.04 3.06 0 0 Z " fill="#8E8E8E" transform="translate(104,144)"/>
<path d="M0 0 C1.65 0 3.3 0 5 0 C4.67 0.66 4.34 1.32 4 2 C7.51822249 6.43601966 11.75390186 7.52033129 17 9 C12.09863819 10.44347798 7.80436786 9.60145595 3 8 C1.3125 6.75 1.3125 6.75 0 5 C-0.1875 2.3125 -0.1875 2.3125 0 0 Z " fill="#949494" transform="translate(48,144)"/>
<path d="M0 0 C1.60788864 4.5020882 -0.02605781 7.33012474 -1.828125 11.5390625 C-4.42995518 17.00290589 -8.09247941 21.44122598 -12 26 C-12.66 25.01 -13.32 24.02 -14 23 C-12.948125 22.2575 -11.89625 21.515 -10.8125 20.75 C-5.83763401 16.53042743 -4.1530929 10.99156563 -2 5 C-1.33921012 3.33099462 -0.67455301 1.66349045 0 0 Z " fill="#A9A9A9" transform="translate(153,98)"/>
<path d="M0 0 C1.62566606 0.47690204 3.25051311 0.95659666 4.875 1.4375 C5.77992187 1.70433594 6.68484375 1.97117187 7.6171875 2.24609375 C10 3 10 3 12 4 C12 5.32 12 6.64 12 8 C10.56068883 7.54738642 9.12361001 7.08767021 7.6875 6.625 C6.88699219 6.36976562 6.08648437 6.11453125 5.26171875 5.8515625 C3 5 3 5 0 3 C0 2.01 0 1.02 0 0 Z " fill="#4D4D4D" transform="translate(122,27)"/>
<path d="M0 0 C0.33 0.99 0.66 1.98 1 3 C2.32 2.34 3.64 1.68 5 1 C3.7508258 4.45925163 2.32472205 7.14693203 0 10 C-1.32 9.34 -2.64 8.68 -4 8 C-2.68 5.36 -1.36 2.72 0 0 Z " fill="#5C5C5C" transform="translate(138,83)"/>
<path d="M0 0 C0.99 0.66 1.98 1.32 3 2 C2.43547197 3.96383689 1.84769361 5.92100165 1.25 7.875 C0.92515625 8.96554688 0.6003125 10.05609375 0.265625 11.1796875 C-1 14 -1 14 -3.140625 15.3828125 C-3.75421875 15.58648437 -4.3678125 15.79015625 -5 16 C-4.54548816 14.26982492 -4.08621143 12.54090123 -3.625 10.8125 C-3.36976562 9.84957031 -3.11453125 8.88664062 -2.8515625 7.89453125 C-2.05233704 5.17789793 -1.0968638 2.60862825 0 0 Z " fill="#5C5C5C" transform="translate(46,55)"/>
<path d="M0 0 C0.66 0 1.32 0 2 0 C2.33 0.99 2.66 1.98 3 3 C1.7391988 4.03319813 0.46596742 5.05124379 -0.8125 6.0625 C-1.87404297 6.91521484 -1.87404297 6.91521484 -2.95703125 7.78515625 C-3.63121094 8.18605469 -4.30539063 8.58695313 -5 9 C-5.99 8.67 -6.98 8.34 -8 8 C-7.25 5.5625 -7.25 5.5625 -6 3 C-4 2.3125 -4 2.3125 -2 2 C-1.34 1.34 -0.68 0.68 0 0 Z " fill="#585858" transform="translate(23,32)"/>
<path d="M0 0 C5.4611399 0.35233161 5.4611399 0.35233161 8 1 C9.5 3.0625 9.5 3.0625 10 5 C2.375 4.125 2.375 4.125 -1 3 C-0.67 2.01 -0.34 1.02 0 0 Z " fill="#DFDFDF" transform="translate(105,86)"/>
<path d="M0 0 C6.625 -0.125 6.625 -0.125 10 1 C10 1.66 10 2.32 10 3 C3.07 3 -3.86 3 -11 3 C-11 2.67 -11 2.34 -11 2 C-5.555 1.505 -5.555 1.505 0 1 C0 0.67 0 0.34 0 0 Z " fill="#C1C1C1" transform="translate(78,43)"/>
<path d="M0 0 C2.56616632 3.84924948 2.55097676 6.4349304 3 11 C2.01 10.67 1.02 10.34 0 10 C-0.94921875 7.93359375 -0.94921875 7.93359375 -1.6875 5.4375 C-1.93886719 4.61121094 -2.19023437 3.78492187 -2.44921875 2.93359375 C-2.63097656 2.29550781 -2.81273437 1.65742187 -3 1 C-2.01 0.67 -1.02 0.34 0 0 Z " fill="#474747" transform="translate(18,113)"/>
<path d="M0 0 C0.66 0 1.32 0 2 0 C5.42857143 7.28571429 5.42857143 7.28571429 5 12 C4.01 11.67 3.02 11.34 2 11 C2.33 9.68 2.66 8.36 3 7 C1.68 6.34 0.36 5.68 -1 5 C-0.67 3.35 -0.34 1.7 0 0 Z " fill="#848484" transform="translate(131,24)"/>
<path d="M0 0 C0 3 0 3 -2.625 5.91796875 C-3.74249406 7.01550756 -4.86785643 8.10507895 -6 9.1875 C-6.57234375 9.74630859 -7.1446875 10.30511719 -7.734375 10.88085938 C-9.14962788 12.26073093 -10.57397155 13.63126734 -12 15 C-12.66 14.34 -13.32 13.68 -14 13 C-13.32453125 12.39671875 -12.6490625 11.7934375 -11.953125 11.171875 C-11.06109375 10.37265625 -10.1690625 9.5734375 -9.25 8.75 C-8.36828125 7.96109375 -7.4865625 7.1721875 -6.578125 6.359375 C-4.32133835 4.29407328 -2.14260074 2.18264936 0 0 Z " fill="#C2C2C2" transform="translate(99,85)"/>
<path d="M0 0 C0.74609375 1.703125 0.74609375 1.703125 1 4 C-0.65234375 6.359375 -0.65234375 6.359375 -2.9375 8.75 C-4.06478516 9.94882812 -4.06478516 9.94882812 -5.21484375 11.171875 C-5.80394531 11.77515625 -6.39304687 12.3784375 -7 13 C-7.66 12.01 -8.32 11.02 -9 10 C-8.43410156 9.44570313 -7.86820312 8.89140625 -7.28515625 8.3203125 C-6.55167969 7.59585937 -5.81820312 6.87140625 -5.0625 6.125 C-4.33160156 5.40570312 -3.60070312 4.68640625 -2.84765625 3.9453125 C-0.94332001 2.12972808 -0.94332001 2.12972808 0 0 Z " fill="#CCCCCC" transform="translate(104,22)"/>
<path d="M0 0 C0.66 0.33 1.32 0.66 2 1 C0.51218185 4.78717347 -1.61988409 6.77407001 -5 9 C-5.99 8.67 -6.98 8.34 -8 8 C-5.36 5.36 -2.72 2.72 0 0 Z " fill="#646464" transform="translate(42,18)"/>
<path d="M0 0 C4.875 2.75 4.875 2.75 6 5 C5.5625 7.125 5.5625 7.125 5 9 C3.68 9.33 2.36 9.66 1 10 C1.020625 9.0925 1.04125 8.185 1.0625 7.25 C1.0110245 4.57327412 0.7784983 2.53011948 0 0 Z " fill="#C6C6C6" transform="translate(134,27)"/>
<path d="M0 0 C0.66 0.33 1.32 0.66 2 1 C-1.54352618 5.31385796 -5.95192247 6.9721398 -11 9 C-9.73948004 5.21844011 -8.43553394 4.74381633 -5.0625 2.75 C-4.16660156 2.20859375 -3.27070312 1.6671875 -2.34765625 1.109375 C-1.57292969 0.74328125 -0.79820313 0.3771875 0 0 Z " fill="#C8C8C8" transform="translate(116,144)"/>
<path d="M0 0 C2.48212484 4.60966042 4 8.72927515 4 14 C3.34 14 2.68 14 2 14 C-1.62870159 4.58997722 -1.62870159 4.58997722 0 0 Z " fill="#575757" transform="translate(11,100)"/>
<path d="M0 0 C1.11375 0.495 1.11375 0.495 2.25 1 C5.13883312 2.22782871 5.13883312 2.22782871 9 2 C8.67 3.32 8.34 4.64 8 6 C8.99 6.33 9.98 6.66 11 7 C10.01 7.495 10.01 7.495 9 8 C7.08984375 7.109375 7.08984375 7.109375 4.9375 5.75 C4.22464844 5.31171875 3.51179688 4.8734375 2.77734375 4.421875 C1 3 1 3 0 0 Z " fill="#B9B9B9" transform="translate(40,143)"/>
<path d="M0 0 C0.99 0.33 1.98 0.66 3 1 C3 1.66 3 2.32 3 3 C5.475 3.99 5.475 3.99 8 5 C8 5.66 8 6.32 8 7 C4.7 6.01 1.4 5.02 -2 4 C-1.34 3.67 -0.68 3.34 0 3 C0 2.01 0 1.02 0 0 Z " fill="#5F5F5F" transform="translate(114,23)"/>
<path d="M0 0 C0.66 0.33 1.32 0.66 2 1 C0.73452987 2.62918007 -0.53757728 4.25320642 -1.8125 5.875 C-2.52019531 6.77992187 -3.22789062 7.68484375 -3.95703125 8.6171875 C-6 11 -6 11 -9 13 C-7.50923566 9.7173068 -5.61379679 7.06922559 -3.375 4.25 C-2.74335938 3.45078125 -2.11171875 2.6515625 -1.4609375 1.828125 C-0.97882813 1.22484375 -0.49671875 0.6215625 0 0 Z " fill="#C6C6C6" transform="translate(145,118)"/>
<path d="M0 0 C1.32 0.33 2.64 0.66 4 1 C3.67 1.66 3.34 2.32 3 3 C2.01 3 1.02 3 0 3 C-0.12375 3.5775 -0.2475 4.155 -0.375 4.75 C-1.00648824 7.02335767 -1.88858191 8.9253529 -3 11 C-3.66 11 -4.32 11 -5 11 C-3.55049545 7.2089881 -1.84827434 3.6125362 0 0 Z " fill="#6A6A6A" transform="translate(146,69)"/>
<path d="M0 0 C0 2.31 0 4.62 0 7 C-1.98 7.66 -3.96 8.32 -6 9 C-5.67 8.34 -5.34 7.68 -5 7 C-4.34 7 -3.68 7 -3 7 C-3 5.02 -3 3.04 -3 1 C-1 0 -1 0 0 0 Z " fill="#A7A7A7" transform="translate(73,132)"/>
<path d="M0 0 C0.93616694 2.52481387 1.17818983 3.59474972 0.07421875 6.10546875 C-0.38339844 6.79253906 -0.84101563 7.47960937 -1.3125 8.1875 C-1.76238281 8.88230469 -2.21226562 9.57710937 -2.67578125 10.29296875 C-4 12 -4 12 -6 13 C-6 12.01 -6 11.02 -6 10 C-5.34 9.67 -4.68 9.34 -4 9 C-2.87293294 6.88984046 -2.87293294 6.88984046 -1.875 4.4375 C-1.34519531 3.19806641 -1.34519531 3.19806641 -0.8046875 1.93359375 C-0.53914062 1.29550781 -0.27359375 0.65742187 0 0 Z " fill="#777777" transform="translate(149,105)"/>
<path d="M0 0 C-2.85306797 2.32472205 -5.54074837 3.7508258 -9 5 C-9 4.01 -9 3.02 -9 2 C-3.375 -1.125 -3.375 -1.125 0 0 Z " fill="#B4B4B4" transform="translate(25,91)"/>
<path d="M0 0 C2.0625 1.75 2.0625 1.75 4 4 C3.75 6.25 3.75 6.25 3 8 C2.01 7.67 1.02 7.34 0 7 C0 4.69 0 2.38 0 0 Z " fill="#5C5C5C" transform="translate(5,78)"/>
<path d="M0 0 C1.23556641 0.01740234 1.23556641 0.01740234 2.49609375 0.03515625 C3.32238281 0.04417969 4.14867187 0.05320313 5 0.0625 C5.63808594 0.07410156 6.27617188 0.08570313 6.93359375 0.09765625 C6.93359375 0.42765625 6.93359375 0.75765625 6.93359375 1.09765625 C5.28359375 1.09765625 3.63359375 1.09765625 1.93359375 1.09765625 C2.26359375 2.08765625 2.59359375 3.07765625 2.93359375 4.09765625 C1.28359375 4.09765625 -0.36640625 4.09765625 -2.06640625 4.09765625 C-2.39640625 3.10765625 -2.72640625 2.11765625 -3.06640625 1.09765625 C-2.06640625 0.09765625 -2.06640625 0.09765625 0 0 Z " fill="#606060" transform="translate(53.06640625,47.90234375)"/>
<path d="M0 0 C0.66 0 1.32 0 2 0 C2.33 1.32 2.66 2.64 3 4 C2.34 4 1.68 4 1 4 C1 5.65 1 7.3 1 9 C-1.15341979 6.84658021 -1.64111965 5.96076291 -2 3 C-1.34 2.01 -0.68 1.02 0 0 Z " fill="#575757" transform="translate(93,60)"/>
<path d="M0 0 C0.99 0.33 1.98 0.66 3 1 C3.625 4.375 3.625 4.375 4 8 C3.34 8.66 2.68 9.32 2 10 C1.34 6.7 0.68 3.4 0 0 Z " fill="#B9B9B9" transform="translate(74,129)"/>
<path d="M0 0 C2.72869407 0.03287583 5.2966618 0.56397771 8 1 C7.01 2.485 7.01 2.485 6 4 C3.36 3.34 0.72 2.68 -2 2 C-1.34 1.34 -0.68 0.68 0 0 Z " fill="#A8A8A8" transform="translate(127,88)"/>
<path d="M0 0 C0.99 0.33 1.98 0.66 3 1 C4.1875 4.0625 4.1875 4.0625 5 7 C4.34 7.66 3.68 8.32 3 9 C0 3.375 0 3.375 0 0 Z " fill="#D6D6D6" transform="translate(89,46)"/>
<path d="M0 0 C0.66 0.33 1.32 0.66 2 1 C0.68 2.65 -0.64 4.3 -2 6 C-3.32 5.67 -4.64 5.34 -6 5 C-5.34 5 -4.68 5 -4 5 C-3.67 4.01 -3.34 3.02 -3 2 C-2.01 1.34 -1.02 0.68 0 0 Z " fill="#CDCDCD" transform="translate(91,38)"/>
<path d="M0 0 C2.35953094 2.35953094 2.49141413 3.77895617 3 7 C2.01 7.33 1.02 7.66 0 8 C-1.125 2.25 -1.125 2.25 0 0 Z " fill="#D6D6D6" transform="translate(99,64)"/>
<path d="M0 0 C0.99 0.66 1.98 1.32 3 2 C2.34 3.65 1.68 5.3 1 7 C0.01 7 -0.98 7 -2 7 C-1.34 4.69 -0.68 2.38 0 0 Z " fill="#636363" transform="translate(46,55)"/>
</svg>
